<svg width="615" height="443" viewBox="0 0 615 443" fill="none" xmlns="http://www.w3.org/2000/svg">
<g clip-path="url(#clip0_27_3974)">
<path d="M513.855 68.1179L466.413 68.5962C464.183 57.2355 456.69 27.4267 463.438 19.296C463.745 16.2358 465.182 13.4163 467.447 11.4244C469.713 9.43251 472.634 8.42168 475.602 8.60235C482.955 -3.30917 495.203 -1.52073 503.481 5.91853C511.813 8.8934 514.953 14.1784 513.855 21.3504C520.025 26.9393 521.163 33.739 518.394 41.479L513.855 68.1179Z" fill="#2F2E41"/>
<path d="M509.288 98.3622L475.06 93.4578L468.214 83.1038C477.644 76.6307 480.981 67.5894 476.639 55.3117L500.336 54.7668C499.226 65.7002 502.719 74.1656 512.447 79.2892L509.288 98.3622Z" fill="#FFB9B9"/>
<path d="M466.967 417.853L465.658 436.369C465.599 437.208 465.714 438.049 465.994 438.838C466.275 439.626 466.716 440.343 467.286 440.941C467.857 441.539 468.544 442.004 469.303 442.304C470.061 442.605 470.873 442.734 471.683 442.683L480.874 442.107C481.3 442.08 481.715 441.957 482.089 441.745C482.464 441.534 482.788 441.24 483.041 440.884C483.293 440.528 483.466 440.118 483.548 439.685C483.631 439.252 483.62 438.805 483.516 438.377L478.415 417.261L466.967 417.853Z" fill="#E6E6E6"/>
<path d="M496.72 417.261L491.619 438.377C491.515 438.805 491.504 439.252 491.587 439.685C491.669 440.118 491.842 440.528 492.094 440.884C492.347 441.24 492.672 441.534 493.046 441.745C493.421 441.957 493.835 442.08 494.261 442.107L503.452 442.683C504.262 442.734 505.074 442.605 505.832 442.304C506.591 442.004 507.278 441.539 507.849 440.941C508.419 440.343 508.86 439.626 509.141 438.838C509.421 438.049 509.536 437.208 509.477 436.369L508.168 417.853L496.72 417.261Z" fill="#E6E6E6"/>
<path d="M508.761 420.424L496.359 419.136L484.012 282.553L479.345 418.696L467.16 418.244L446.624 229.693H525.085L508.761 420.424Z" fill="#F3F3F3"/>
<path d="M489.804 64.0309C502.891 64.0309 513.501 53.0518 513.501 39.5084C513.501 25.965 502.891 14.986 489.804 14.986C476.717 14.986 466.107 25.965 466.107 39.5084C466.107 53.0518 476.717 64.0309 489.804 64.0309Z" fill="#FFB9B9"/>
<path d="M536.671 234.053L440.831 235.143C455.054 179.11 463.562 127.061 448.73 91.278L472.426 79.2893C483.852 91.6222 496.577 90.3508 510.341 78.1994L532.984 84.1938C529.106 131.117 530.844 181.373 536.671 234.053Z" fill="#F3F3F3"/>
<path d="M414.501 176.289L474.006 200.812L487.31 204.861C487.905 205.042 488.529 205.097 489.145 205.022C489.761 204.947 490.356 204.744 490.895 204.425C491.433 204.106 491.904 203.678 492.278 203.166C492.652 202.654 492.923 202.07 493.073 201.447C493.337 200.355 493.219 199.202 492.739 198.192C492.259 197.181 491.45 196.38 490.453 195.929L476.639 191.548L435.038 166.48L443.727 142.775L425.56 132.694L414.501 176.289Z" fill="#FFB9B9"/>
<path d="M415.028 131.604C426.35 136.175 435.354 143.975 442.411 154.491L464.528 121.25L448.73 91.278L415.028 131.604Z" fill="#F3F3F3"/>
<path d="M516.511 35.5341C506.894 32.9696 497.438 32.6175 488.246 35.8703C482.39 38.805 475.359 38.5346 467.539 36.1166V11.6505L509.757 12.8156L516.511 35.5341Z" fill="#2F2E41"/>
<path d="M473.809 147.717C471.948 147.719 470.164 148.485 468.848 149.847C467.533 151.209 466.793 153.055 466.791 154.98L469.561 214.992C469.563 216.917 470.303 218.763 471.619 220.125C472.934 221.487 474.718 222.253 476.579 222.255H508.252C510.113 222.253 511.897 221.487 513.212 220.125C514.528 218.763 515.268 216.917 515.27 214.992L518.041 154.98C518.038 153.055 517.298 151.209 515.983 149.847C514.667 148.485 512.883 147.719 511.022 147.717H473.809Z" fill="#3F3D56"/>
<path d="M563.674 171.756L511.807 193.128L507.894 194.74C507.77 194.791 507.645 194.834 507.513 194.877L494.403 198.869C492.727 199.377 490.407 197.041 489.05 195.428C488.378 194.651 487.997 193.651 487.976 192.608C487.956 191.565 488.298 190.549 488.939 189.745C489.12 189.529 489.319 189.33 489.534 189.15C490.04 188.743 490.635 188.472 491.266 188.362L504.362 185.696C504.832 185.6 505.284 185.426 505.699 185.18L511.807 181.496L543.52 162.388C544.402 161.858 545.073 161.021 545.415 160.026C545.756 159.031 545.745 157.943 545.383 156.956L539.33 140.436C538.959 139.425 538.956 138.309 539.322 137.296C539.687 136.283 540.397 135.442 541.318 134.931L551.346 129.37C551.919 129.051 552.554 128.872 553.204 128.844C553.854 128.817 554.502 128.943 555.098 129.212C555.694 129.481 556.223 129.886 556.646 130.398C557.068 130.909 557.373 131.514 557.538 132.165L566.243 166.481C566.511 167.533 566.397 168.65 565.924 169.622C565.451 170.594 564.65 171.352 563.674 171.756Z" fill="#FFB9B9"/>
<path d="M566.686 125.609C555.365 130.18 546.36 137.981 539.303 148.497L517.187 115.256L532.984 84.1938L566.686 125.609Z" fill="#F3F3F3"/>
<path d="M505.574 61.3346C495.208 65.797 484.338 65.6158 473.024 61.3346C476.316 55.5193 471.395 50.9647 468.868 45.0943L511.115 43.795C507.884 48.8949 503.117 54.9202 505.574 61.3346Z" fill="white"/>
<path d="M510.668 44.7655L510.177 44.2587L510.87 43.542L515.007 38.5452L515.534 39.011L511.378 44.028L510.668 44.7655Z" fill="white"/>
<path d="M465.973 41.728L465.53 42.2788L469.685 45.8623L470.129 45.3115L465.973 41.728Z" fill="white"/>
<path d="M511.861 48.979L504.587 60.8035L505.172 61.1884L512.445 49.3639L511.861 48.979Z" fill="white"/>
<path d="M466.736 48.978L466.152 49.3629L473.424 61.1886L474.008 60.8037L466.736 48.978Z" fill="white"/>
<path d="M513.193 180.482V193.466L508.825 195.266C508.686 195.322 508.547 195.37 508.4 195.418L493.766 199.874C491.895 200.442 489.305 197.834 487.79 196.034C487.039 195.167 486.614 194.05 486.592 192.886C486.569 191.722 486.95 190.588 487.666 189.69C487.868 189.449 488.091 189.227 488.331 189.026C488.895 188.572 489.559 188.269 490.264 188.146L504.882 185.17C505.407 185.063 505.911 184.869 506.374 184.594L513.193 180.482Z" fill="white"/>
<path d="M519.523 134.169H517.02C517.02 97.5374 509.732 72.0096 502.629 72.0096L502.003 69.4197C508.373 69.4197 512.434 80.0441 514.719 88.9572C517.817 101.04 519.523 117.097 519.523 134.169Z" fill="#3F3D56"/>
<path d="M461.96 125.104H459.457C459.457 91.5555 466.796 70.7147 477.602 70.7147L476.976 73.3047C469.502 73.3047 461.96 89.3215 461.96 125.104Z" fill="#3F3D56"/>
<path d="M518.271 141.291C521.727 141.291 524.528 138.392 524.528 134.816C524.528 131.24 521.727 128.341 518.271 128.341C514.815 128.341 512.014 131.24 512.014 134.816C512.014 138.392 514.815 141.291 518.271 141.291Z" fill="#3F3D56"/>
<path d="M451.948 140.644H449.446C449.446 131.361 454.498 123.809 460.708 123.809V126.399C455.878 126.399 451.948 132.789 451.948 140.644Z" fill="#3F3D56"/>
<path d="M471.97 140.644H469.468C469.468 132.789 465.538 126.399 460.708 126.399V123.809C466.918 123.809 471.97 131.361 471.97 140.644Z" fill="#3F3D56"/>
<path d="M470.719 143.881C472.101 143.881 473.222 142.721 473.222 141.291C473.222 139.861 472.101 138.701 470.719 138.701C469.337 138.701 468.216 139.861 468.216 141.291C468.216 142.721 469.337 143.881 470.719 143.881Z" fill="#3F3D56"/>
<path d="M450.698 143.881C452.08 143.881 453.2 142.721 453.2 141.291C453.2 139.861 452.08 138.701 450.698 138.701C449.315 138.701 448.195 139.861 448.195 141.291C448.195 142.721 449.315 143.881 450.698 143.881Z" fill="#3F3D56"/>
<path d="M149.09 54.2528L105.135 61.9556C104.049 62.1473 102.933 61.9154 102.003 61.3047C101.073 60.694 100.395 59.748 100.1 58.6497C96.9243 46.7886 90.2849 31.3154 96.7311 23.5479C97.0595 20.2801 98.5931 17.2694 101.013 15.1423C103.432 13.0153 106.551 11.9358 109.721 12.1288C117.573 -0.590862 130.651 1.31891 139.491 9.26287C148.387 12.4396 151.742 18.0831 150.569 25.7417C154.412 29.223 156.427 33.1444 156.852 37.4483C157.053 39.8434 156.759 42.2554 155.988 44.5233C155.217 46.7913 153.988 48.8631 152.382 50.6004L149.09 54.2528Z" fill="#2F2E41"/>
<path d="M142.256 90.063L108.181 87.9887C111.521 80.057 112.854 72.4192 111.522 65.172H136.911C136.853 70.7364 139.529 80.3618 142.256 90.063Z" fill="#9F616A"/>
<path d="M101.239 415.896L99.8419 435.669C99.7786 436.564 99.901 437.462 100.201 438.304C100.501 439.146 100.971 439.912 101.58 440.551C102.19 441.189 102.924 441.685 103.734 442.006C104.544 442.327 105.41 442.465 106.276 442.411L116.09 441.795C116.544 441.767 116.987 441.635 117.387 441.409C117.787 441.183 118.134 440.869 118.404 440.489C118.673 440.109 118.858 439.672 118.946 439.209C119.034 438.747 119.022 438.27 118.911 437.812L113.464 415.264L101.239 415.896Z" fill="#E6E6E6"/>
<path d="M133.011 415.264L127.563 437.812C127.453 438.27 127.441 438.747 127.529 439.209C127.617 439.672 127.802 440.109 128.071 440.489C128.34 440.869 128.687 441.183 129.087 441.409C129.487 441.635 129.93 441.767 130.385 441.795L140.199 442.411C141.064 442.465 141.931 442.327 142.741 442.006C143.551 441.685 144.285 441.189 144.894 440.551C145.504 439.912 145.974 439.146 146.274 438.304C146.574 437.462 146.696 436.564 146.633 435.669L145.235 415.896L133.011 415.264Z" fill="#E6E6E6"/>
<path d="M145.868 418.641L132.625 417.266L119.44 271.417L114.457 416.796L101.446 416.313L79.5156 214.972H163.3L145.868 418.641Z" fill="#F3F3F3"/>
<path d="M124.886 73.5654C138.861 73.5654 150.19 61.8415 150.19 47.3793C150.19 32.9171 138.861 21.1932 124.886 21.1932C110.911 21.1932 99.5815 32.9171 99.5815 47.3793C99.5815 61.8415 110.911 73.5654 124.886 73.5654Z" fill="#9F616A"/>
<path d="M153.405 34.8699C143.135 33.019 133.038 32.7648 123.222 35.1126C116.969 37.2308 109.46 37.0356 101.11 35.2903V17.6315L146.192 18.4724L153.405 34.8699Z" fill="#2F2E41"/>
<path d="M141.726 68.3903C130.656 73.1554 119.049 72.9619 106.967 68.3903C110.483 62.1804 105.228 57.3169 102.53 51.0482L147.642 49.6608C144.193 55.1066 139.102 61.5407 141.726 68.3903Z" fill="white"/>
<path d="M99.4236 47.4721L98.98 48.023L103.417 51.8494L103.861 51.2985L99.4236 47.4721Z" fill="white"/>
<path d="M148.46 55.2089L140.693 67.8357L141.277 68.2206L149.044 55.5938L148.46 55.2089Z" fill="white"/>
<path d="M100.232 55.2083L99.6479 55.5931L107.413 68.2212L107.998 67.8363L100.232 55.2083Z" fill="white"/>
<path d="M76.7791 166.81L57.4033 154.365L73.9274 104.282C75.7704 99.1142 79.3004 94.7752 83.9071 92.0151L89.4736 88.6802L89.9576 139.204L76.7791 166.81Z" fill="#F3F3F3"/>
<path d="M160.53 191.134L157.663 165.725C157.51 152.314 159.715 139.347 164.972 127.399L167.645 90.063L138.247 77.6175C138.157 78.2374 138.08 78.857 137.994 79.4768L124.216 86.6059L110.779 83.4456L110.854 79.0004L84.1284 91.4459C92.9664 133.967 88.146 178.122 72.9478 230.278L108.156 240.241L108.448 222.746L139.826 220.426C140.15 226.102 140.409 231.678 140.56 237.129C158.266 243.875 158.874 243.763 175.006 234.105C168.582 220.127 163.495 205.582 160.53 191.134Z" fill="#F3F3F3"/>
<path d="M205.728 160.587L187.689 154.365L158.833 119.602L167.644 90.0634L207.732 148.142L205.728 160.587Z" fill="#F3F3F3"/>
<path d="M149.192 187.5C149.488 188.84 150.284 190.005 151.408 190.738C152.532 191.472 153.891 191.714 155.187 191.412L170.5 187.823L168.287 177.708L152.973 181.297C151.677 181.6 150.551 182.425 149.842 183.588C149.133 184.751 148.899 186.158 149.192 187.5Z" fill="#E6E6E6"/>
<path d="M162.968 175.799L171.653 192.393C186.263 188.176 198.924 174.883 211.073 159.205L207.732 148.142L187.02 153.673L162.968 175.799Z" fill="#F3F3F3"/>
<path d="M49.7192 123.747L66.3935 126.828L104.506 182.908L84.259 177.978L49.7192 123.747Z" fill="#E6E6E6"/>
<path d="M46.7621 123.061C46.508 123.065 46.2596 123.139 46.0429 123.276C45.8262 123.414 45.6491 123.609 45.5302 123.841C45.4112 124.074 45.3548 124.335 45.3668 124.597C45.3788 124.86 45.4588 125.115 45.5984 125.334L81.2237 181.271C81.4225 181.583 81.7295 181.805 82.0817 181.891L98.657 185.927C98.9365 185.995 99.2294 185.973 99.4968 185.865C99.7642 185.757 99.9935 185.567 100.154 185.321C100.315 185.075 100.4 184.784 100.397 184.487C100.395 184.19 100.305 183.9 100.139 183.657L61.0251 126.103C60.919 125.947 60.7841 125.813 60.6281 125.71C60.4721 125.607 60.2981 125.537 60.1159 125.504L47.0293 123.086C46.9411 123.069 46.8517 123.061 46.7621 123.061Z" fill="#3F3D56"/>
<path d="M68.9854 163.054L69.9755 173.375L85.5995 171.77C86.922 171.634 88.1382 170.96 88.9806 169.896C89.8229 168.833 90.2224 167.466 90.0912 166.098C89.9599 164.729 89.3087 163.47 88.2807 162.599C87.2527 161.727 85.9322 161.314 84.6097 161.449L68.9854 163.054Z" fill="#E6E6E6"/>
<path d="M55.3989 161.859C55.4216 165.378 56.7874 168.745 59.1987 171.227C61.6099 173.708 64.8712 175.103 68.2718 175.107H70.8409L72.7113 158.977L57.2252 153.208L55.3989 161.859Z" fill="#F3F3F3"/>
<path d="M146.408 51.4452L145.918 50.9384L146.658 50.173L151.077 44.8357L151.603 45.3016L147.166 50.6589L146.408 51.4452Z" fill="white"/>
<g filter="url(#filter0_d_27_3974)">
<path d="M615 441.567H0V443H615V441.567Z" fill="#3F3D56"/>
</g>
<path d="M234.78 440.85H380.219V258.293C380.219 248.627 371.019 240.762 359.71 240.762H255.29C243.981 240.762 234.78 248.627 234.78 258.293V440.85Z" fill="#E6E6E6"/>
<path d="M245.861 433.301H369.138V278.562C369.138 270.369 361.34 263.703 351.754 263.703H263.246C253.66 263.703 245.861 270.369 245.861 278.562V433.301Z" fill="white"/>
<path d="M233.682 226.555C230.087 226.555 227.162 229.055 227.162 232.128V248.213C227.162 251.286 230.087 253.786 233.682 253.786H381.319C384.913 253.786 387.838 251.286 387.838 248.213V232.128C387.838 229.055 384.913 226.555 381.319 226.555H233.682Z" fill="#3F3D56"/>
<path d="M263.993 413.459C262.306 413.464 260.688 414.16 259.495 415.395C258.302 416.63 257.629 418.304 257.624 420.051C257.629 421.797 258.302 423.471 259.495 424.706C260.688 425.941 262.306 426.637 263.993 426.642H275.915V413.459H263.993Z" fill="#3F3D56"/>
<path d="M286.858 413.459H275.262V426.642H286.858C288.545 426.637 290.163 425.941 291.356 424.706C292.549 423.471 293.222 421.797 293.227 420.051C293.222 418.304 292.549 416.631 291.356 415.395C290.163 414.16 288.545 413.464 286.858 413.459Z" fill="#F3F3F3"/>
<path opacity="0.2" d="M291.014 415.074C292.018 416.265 292.572 417.793 292.574 419.375C292.569 421.121 291.896 422.795 290.703 424.03C289.509 425.265 287.892 425.961 286.204 425.966H275.262V426.642H286.858C288.545 426.637 290.163 425.941 291.356 424.706C292.549 423.471 293.222 421.797 293.227 420.051C293.225 419.105 293.027 418.171 292.645 417.312C292.263 416.453 291.707 415.69 291.014 415.074Z" fill="black"/>
<path d="M317.793 314.177C316.631 312.909 315.033 312.169 313.346 312.118C311.659 312.066 310.021 312.707 308.789 313.902C307.564 315.103 306.849 316.758 306.799 318.504C306.749 320.25 307.369 321.945 308.523 323.219L316.701 332.197L325.97 323.154L317.793 314.177Z" fill="#3F3D56"/>
<path d="M333.476 331.394L325.522 322.663L316.252 331.705L324.206 340.437C325.367 341.704 326.966 342.444 328.653 342.496C330.34 342.547 331.978 341.906 333.21 340.712C334.434 339.51 335.15 337.856 335.2 336.11C335.249 334.364 334.63 332.669 333.476 331.394Z" fill="#F3F3F3"/>
<path opacity="0.2" d="M335.191 335.631C335.042 337.205 334.348 338.67 333.237 339.756C332.006 340.95 330.367 341.592 328.68 341.54C326.993 341.489 325.395 340.748 324.233 339.481L316.728 331.241L316.252 331.705L324.206 340.437C325.367 341.704 326.966 342.444 328.653 342.496C330.34 342.547 331.978 341.906 333.21 340.712C333.874 340.062 334.394 339.272 334.736 338.395C335.078 337.518 335.233 336.576 335.191 335.631Z" fill="black"/>
<path d="M283.857 334.961C282.695 333.694 281.097 332.954 279.41 332.902C277.723 332.85 276.085 333.492 274.853 334.686C273.628 335.888 272.913 337.542 272.863 339.288C272.813 341.034 273.433 342.729 274.587 344.004L282.765 352.981L292.034 343.939L283.857 334.961Z" fill="#3F3D56"/>
<path d="M299.54 352.179L291.586 343.447L282.317 352.489L290.271 361.221C291.432 362.488 293.031 363.229 294.718 363.28C296.405 363.332 298.043 362.69 299.274 361.496C300.499 360.294 301.214 358.64 301.264 356.894C301.314 355.148 300.694 353.453 299.54 352.179Z" fill="#F3F3F3"/>
<path opacity="0.2" d="M301.256 356.416C301.107 357.99 300.413 359.455 299.301 360.54C298.07 361.735 296.432 362.376 294.745 362.325C293.058 362.273 291.459 361.533 290.298 360.265L282.792 352.026L282.317 352.489L290.271 361.221C291.432 362.488 293.031 363.229 294.718 363.28C296.405 363.332 298.043 362.69 299.274 361.496C299.938 360.846 300.459 360.056 300.801 359.18C301.143 358.303 301.298 357.36 301.256 356.416Z" fill="black"/>
<path d="M317.793 354.312C316.631 353.045 315.033 352.305 313.346 352.253C311.659 352.202 310.021 352.843 308.789 354.037C307.564 355.239 306.849 356.893 306.799 358.639C306.749 360.385 307.369 362.08 308.523 363.355L316.701 372.332L325.97 363.29L317.793 354.312Z" fill="#3F3D56"/>
<path d="M333.476 371.53L325.522 362.798L316.252 371.84L324.206 380.572C325.367 381.839 326.966 382.58 328.653 382.631C330.34 382.683 331.978 382.041 333.21 380.847C334.434 379.645 335.15 377.991 335.2 376.245C335.249 374.499 334.63 372.804 333.476 371.53Z" fill="#F3F3F3"/>
<path opacity="0.2" d="M335.191 375.767C335.042 377.341 334.348 378.806 333.237 379.892C332.006 381.086 330.367 381.727 328.68 381.676C326.993 381.624 325.395 380.884 324.233 379.616L316.728 371.377L316.252 371.84L324.206 380.572C325.367 381.84 326.966 382.58 328.653 382.631C330.34 382.683 331.978 382.042 333.21 380.847C333.874 380.198 334.394 379.407 334.736 378.531C335.078 377.654 335.233 376.711 335.191 375.767Z" fill="black"/>
<path d="M338.495 395.499C339.706 394.282 340.402 392.619 340.431 390.873C340.46 389.126 339.821 387.439 338.652 386.179C337.476 384.926 335.868 384.206 334.181 384.176C332.493 384.146 330.863 384.808 329.646 386.017L321.07 394.589L329.92 404.07L338.495 395.499Z" fill="#3F3D56"/>
<path d="M322.05 411.937L330.39 403.601L321.54 394.119L313.2 402.455C311.989 403.672 311.293 405.336 311.264 407.082C311.235 408.828 311.875 410.516 313.044 411.775C314.22 413.028 315.827 413.748 317.514 413.779C319.202 413.809 320.832 413.147 322.05 411.937Z" fill="#F3F3F3"/>
<path opacity="0.2" d="M317.977 413.764C316.454 413.629 315.03 412.928 313.967 411.792C312.798 410.532 312.159 408.845 312.188 407.099C312.217 405.352 312.913 403.689 314.124 402.472L321.994 394.605L321.54 394.119L313.2 402.455C311.989 403.672 311.293 405.336 311.264 407.082C311.235 408.828 311.875 410.516 313.044 411.775C313.679 412.454 314.449 412.983 315.3 413.327C316.152 413.67 317.064 413.819 317.977 413.764Z" fill="black"/>
<path d="M292.786 374.715C293.996 373.498 294.692 371.834 294.722 370.088C294.751 368.342 294.111 366.655 292.942 365.395C291.766 364.142 290.159 363.422 288.471 363.392C286.784 363.361 285.154 364.023 283.936 365.233L275.361 373.804L284.211 383.286L292.786 374.715Z" fill="#3F3D56"/>
<path d="M276.34 391.153L284.681 382.816L275.831 373.334L267.49 381.671C266.28 382.888 265.584 384.551 265.555 386.298C265.525 388.044 266.165 389.731 267.334 390.991C268.51 392.244 270.117 392.964 271.805 392.994C273.492 393.024 275.123 392.362 276.34 391.153Z" fill="#F3F3F3"/>
<path opacity="0.2" d="M272.267 392.98C270.744 392.844 269.32 392.144 268.258 391.008C267.089 389.748 266.449 388.06 266.478 386.314C266.508 384.568 267.204 382.904 268.414 381.687L276.285 373.821L275.831 373.334L267.49 381.671C266.28 382.888 265.584 384.551 265.555 386.298C265.525 388.044 266.165 389.731 267.334 390.991C267.97 391.67 268.74 392.199 269.591 392.542C270.442 392.885 271.355 393.035 272.267 392.98Z" fill="black"/>
<path d="M357.887 349.63C359.098 348.413 359.793 346.75 359.823 345.003C359.852 343.257 359.212 341.57 358.043 340.31C356.867 339.057 355.26 338.337 353.573 338.307C351.885 338.277 350.255 338.938 349.037 340.148L340.462 348.719L349.312 358.201L357.887 349.63Z" fill="#3F3D56"/>
<path d="M341.441 366.068L349.782 357.732L340.932 348.25L332.591 356.586C331.381 357.803 330.685 359.466 330.656 361.213C330.626 362.959 331.266 364.646 332.435 365.906C333.611 367.159 335.218 367.879 336.906 367.909C338.593 367.94 340.224 367.278 341.441 366.068Z" fill="#F3F3F3"/>
<path opacity="0.2" d="M337.368 367.895C335.846 367.76 334.422 367.059 333.359 365.923C332.19 364.663 331.55 362.976 331.579 361.229C331.609 359.483 332.305 357.82 333.515 356.603L341.386 348.736L340.932 348.25L332.591 356.586C331.381 357.803 330.685 359.466 330.656 361.213C330.626 362.959 331.266 364.646 332.435 365.906C333.071 366.585 333.841 367.114 334.692 367.457C335.543 367.801 336.456 367.95 337.368 367.895Z" fill="black"/>
<path d="M343.418 401.615C342.256 400.348 340.658 399.607 338.971 399.556C337.284 399.504 335.646 400.146 334.414 401.34C333.189 402.542 332.474 404.196 332.424 405.942C332.374 407.688 332.994 409.383 334.148 410.657L342.326 419.635L351.595 410.593L343.418 401.615Z" fill="#3F3D56"/>
<path d="M359.101 418.832L351.147 410.101L341.877 419.143L349.831 427.875C350.992 429.142 352.591 429.882 354.278 429.934C355.965 429.985 357.603 429.344 358.835 428.15C360.059 426.948 360.775 425.294 360.825 423.548C360.874 421.802 360.255 420.107 359.101 418.832Z" fill="#F3F3F3"/>
<path opacity="0.2" d="M360.816 423.069C360.667 424.643 359.973 426.108 358.862 427.194C357.631 428.388 355.992 429.03 354.305 428.978C352.618 428.927 351.02 428.186 349.858 426.919L342.353 418.679L341.877 419.143L349.831 427.875C350.992 429.142 352.591 429.882 354.278 429.934C355.965 429.986 357.603 429.344 358.835 428.15C359.499 427.5 360.019 426.71 360.361 425.833C360.703 424.956 360.858 424.014 360.816 423.069Z" fill="black"/>
<path d="M298.401 400.898C297.239 399.631 295.641 398.891 293.954 398.839C292.267 398.787 290.628 399.429 289.397 400.623C288.172 401.825 287.457 403.479 287.407 405.225C287.357 406.971 287.977 408.666 289.131 409.941L297.309 418.918L306.578 409.876L298.401 400.898Z" fill="#3F3D56"/>
<path d="M314.084 418.116L306.13 409.384L296.861 418.426L304.815 427.158C305.976 428.425 307.574 429.166 309.261 429.217C310.948 429.269 312.587 428.627 313.818 427.433C315.043 426.231 315.758 424.577 315.808 422.831C315.858 421.085 315.238 419.39 314.084 418.116Z" fill="#F3F3F3"/>
<path opacity="0.2" d="M315.8 422.353C315.651 423.927 314.957 425.392 313.845 426.477C312.614 427.672 310.976 428.313 309.289 428.262C307.602 428.21 306.003 427.47 304.842 426.202L297.336 417.963L296.861 418.426L304.815 427.158C305.976 428.425 307.574 429.166 309.261 429.217C310.948 429.269 312.587 428.627 313.818 427.433C314.482 426.783 315.003 425.993 315.344 425.117C315.686 424.24 315.842 423.297 315.8 422.353Z" fill="black"/>
<path d="M311.072 377.252C311.073 379.443 310.342 381.567 309.003 383.265C307.663 384.962 305.799 386.129 303.724 386.567C302.511 386.821 301.262 386.821 300.05 386.567C297.975 386.129 296.111 384.962 294.772 383.264C293.433 381.567 292.701 379.443 292.701 377.252C292.701 375.06 293.433 372.936 294.772 371.239C296.111 369.541 297.975 368.375 300.05 367.936C301.262 367.683 302.511 367.683 303.724 367.936C305.799 368.374 307.663 369.541 309.003 371.239C310.342 372.936 311.073 375.06 311.072 377.252Z" fill="#F3F3F3"/>
<path opacity="0.2" d="M303.724 367.936V386.567C302.511 386.821 301.262 386.821 300.049 386.567V367.936C301.262 367.683 302.511 367.683 303.724 367.936Z" fill="black"/>
<path d="M315.228 339.266C315.228 341.458 314.497 343.582 313.158 345.279C311.819 346.977 309.954 348.144 307.879 348.582C306.667 348.835 305.417 348.835 304.205 348.582C302.13 348.143 300.266 346.976 298.927 345.279C297.588 343.581 296.856 341.457 296.856 339.266C296.856 337.075 297.588 334.951 298.927 333.254C300.266 331.556 302.13 330.389 304.205 329.951C305.417 329.697 306.667 329.697 307.879 329.951C309.954 330.389 311.819 331.556 313.158 333.253C314.497 334.951 315.228 337.075 315.228 339.266Z" fill="#F3F3F3"/>
<path opacity="0.2" d="M307.879 329.951V348.582C306.667 348.835 305.418 348.835 304.205 348.582V329.951C305.418 329.697 306.667 329.697 307.879 329.951Z" fill="black"/>
<path d="M315.228 393.736C315.228 395.927 314.497 398.052 313.158 399.749C311.819 401.447 309.954 402.613 307.879 403.052C306.667 403.305 305.417 403.305 304.205 403.052C302.13 402.613 300.266 401.446 298.927 399.749C297.588 398.051 296.856 395.927 296.856 393.736C296.856 391.545 297.588 389.421 298.927 387.723C300.266 386.026 302.13 384.859 304.205 384.42C305.417 384.167 306.667 384.167 307.879 384.42C309.954 384.859 311.819 386.025 313.158 387.723C314.497 389.42 315.228 391.545 315.228 393.736Z" fill="#F3F3F3"/>
<path opacity="0.2" d="M307.879 384.42V403.052C306.667 403.305 305.418 403.305 304.205 403.052V384.42C305.418 384.167 306.667 384.167 307.879 384.42Z" fill="black"/>
<path d="M338.082 420.254C338.083 422.445 337.351 424.57 336.012 426.267C334.673 427.965 332.808 429.131 330.734 429.57C329.521 429.823 328.272 429.823 327.059 429.57C324.985 429.131 323.12 427.964 321.781 426.267C320.442 424.569 319.711 422.445 319.711 420.254C319.711 418.063 320.442 415.939 321.781 414.241C323.12 412.544 324.985 411.377 327.059 410.938C328.272 410.685 329.521 410.685 330.734 410.938C332.808 411.377 334.673 412.543 336.012 414.241C337.351 415.938 338.083 418.063 338.082 420.254Z" fill="#F3F3F3"/>
<path opacity="0.2" d="M330.734 410.938V429.57C329.521 429.823 328.272 429.823 327.06 429.57V410.938C328.272 410.685 329.521 410.685 330.734 410.938Z" fill="black"/>
<path d="M358.272 371.464C359.797 372.984 360.767 375.003 361.019 377.179C361.271 379.355 360.789 381.554 359.654 383.404C358.989 384.483 358.122 385.414 357.104 386.142C355.359 387.383 353.253 387.962 351.143 387.782C349.033 387.602 347.047 386.673 345.523 385.152C343.998 383.631 343.028 381.612 342.776 379.437C342.524 377.261 343.006 375.062 344.141 373.212C344.806 372.133 345.673 371.202 346.691 370.474C348.436 369.232 350.541 368.653 352.652 368.833C354.762 369.013 356.748 369.943 358.272 371.464Z" fill="#F3F3F3"/>
<path opacity="0.2" d="M346.691 370.474L359.654 383.404C358.989 384.483 358.122 385.414 357.104 386.142L344.141 373.212C344.806 372.133 345.673 371.202 346.691 370.474Z" fill="black"/>
<path d="M361.042 392.248C362.567 393.769 363.537 395.788 363.789 397.963C364.041 400.139 363.559 402.338 362.424 404.188C361.759 405.268 360.892 406.199 359.874 406.926C358.129 408.167 356.023 408.747 353.913 408.567C351.803 408.386 349.817 407.457 348.293 405.937C346.768 404.416 345.798 402.397 345.546 400.221C345.294 398.046 345.777 395.847 346.911 393.996C347.576 392.917 348.443 391.986 349.461 391.259C351.206 390.017 353.311 389.437 355.422 389.617C357.532 389.798 359.518 390.727 361.042 392.248Z" fill="#F3F3F3"/>
<path opacity="0.2" d="M349.461 391.259L362.424 404.188C361.759 405.268 360.892 406.199 359.874 406.926L346.911 393.996C347.576 392.917 348.443 391.986 349.461 391.259Z" fill="black"/>
<path d="M278.626 397.265C280.151 398.786 281.122 400.805 281.374 402.98C281.625 405.156 281.143 407.355 280.008 409.205C279.343 410.285 278.476 411.216 277.458 411.943C275.713 413.184 273.608 413.764 271.497 413.584C269.387 413.403 267.402 412.474 265.877 410.954C264.353 409.433 263.382 407.414 263.131 405.238C262.879 403.062 263.361 400.864 264.495 399.013C265.161 397.934 266.028 397.003 267.045 396.276C268.79 395.034 270.896 394.454 273.006 394.634C275.117 394.815 277.102 395.744 278.626 397.265Z" fill="#F3F3F3"/>
<path opacity="0.2" d="M267.045 396.276L280.008 409.205C279.343 410.285 278.476 411.215 277.458 411.943L264.496 399.013C265.161 397.934 266.028 397.003 267.045 396.276Z" fill="black"/>
<path opacity="0.2" d="M248.978 226.555H245.515V253.073H248.978V226.555Z" fill="black"/>
<path opacity="0.2" d="M269.062 226.555H265.6V253.073H269.062V226.555Z" fill="black"/>
<path opacity="0.2" d="M289.147 226.555H285.684V253.073H289.147V226.555Z" fill="black"/>
<path opacity="0.2" d="M309.231 226.555H305.769V253.073H309.231V226.555Z" fill="black"/>
<path opacity="0.2" d="M329.316 226.555H325.853V253.073H329.316V226.555Z" fill="black"/>
<path opacity="0.2" d="M349.4 226.555H345.938V253.073H349.4V226.555Z" fill="black"/>
<path opacity="0.2" d="M369.485 226.555H366.022V253.073H369.485V226.555Z" fill="black"/>
</g>
<defs>
<filter id="filter0_d_27_3974" x="-4" y="441.567" width="623" height="9.43341" filterUnits="userSpaceOnUse" color-interpolation-filters="sRGB">
<feFlood flood-opacity="0" result="BackgroundImageFix"/>
<feColorMatrix in="SourceAlpha" type="matrix" values="0 0 0 0 0 0 0 0 0 0 0 0 0 0 0 0 0 0 127 0" result="hardAlpha"/>
<feOffset dy="4"/>
<feGaussianBlur stdDeviation="2"/>
<feComposite in2="hardAlpha" operator="out"/>
<feColorMatrix type="matrix" values="0 0 0 0 0 0 0 0 0 0 0 0 0 0 0 0 0 0 0.25 0"/>
<feBlend mode="normal" in2="BackgroundImageFix" result="effect1_dropShadow_27_3974"/>
<feBlend mode="normal" in="SourceGraphic" in2="effect1_dropShadow_27_3974" result="shape"/>
</filter>
<clipPath id="clip0_27_3974">
<rect width="615" height="443" fill="white"/>
</clipPath>
</defs>
</svg>
