<svg width="617" height="526" viewBox="0 0 617 526" fill="none" xmlns="http://www.w3.org/2000/svg">
<g clip-path="url(#clip0_27_197)">
<path d="M0 520.673C0 521.441 0.623306 522.057 1.39948 522.057H615.601C616.377 522.057 617 521.441 617 520.673C617 519.905 616.377 519.288 615.601 519.288H1.39948C0.623297 519.288 0 519.905 0 520.673Z" fill="#3F3C57"/>
<path d="M200.396 55.9005L207.075 86.0508L192.868 128.017L169.979 82.9277L173.155 56.7695L200.396 55.9005Z" fill="#FDB4B4"/>
<path d="M208.316 84.4893H168.795V131.726H208.316V84.4893Z" fill="#F3F3F3"/>
<path d="M192.064 71.0877C206.971 71.0877 219.054 59.1342 219.054 44.3888C219.054 29.6434 206.971 17.6898 192.064 17.6898C177.158 17.6898 165.075 29.6434 165.075 44.3888C165.075 59.1342 177.158 71.0877 192.064 71.0877Z" fill="#FDB4B4"/>
<path d="M168.571 64.2422C168.571 64.2422 148.453 27.4875 166.592 9.80016C184.731 -7.88715 199.292 3.76768 199.292 3.76768L207.607 3.43526C207.607 3.43526 209.341 9.90846 212.137 6.40425C214.934 2.90003 219.987 15.6619 219.987 15.6619C229.365 32.3703 196.853 36.1133 196.853 36.1133C196.853 36.1133 199.201 43.5112 196.815 45.0605C194.429 46.6098 188.053 52.438 188.053 52.438L182.346 56.7015L178.955 51.5901C178.955 51.5901 175.412 48.8239 173.623 49.9859C171.833 51.1479 174.295 66.4365 174.295 66.4365L168.571 64.2422Z" fill="#2E2E41"/>
<path d="M136.193 334.641L125.875 486.906L151.242 487.756L184.778 335.916L136.193 334.641Z" fill="#2E2E41"/>
<path d="M197.677 333.79L187.358 486.055L212.725 486.905L246.262 335.066L197.677 333.79Z" fill="#2E2E41"/>
<path d="M129.98 369.429L143.484 203.591L122.774 117.235C120.989 104.398 129.165 92.2518 141.784 88.9397L162.049 83.6214L171.018 74.7485L191.419 119.315L204.16 74.7825L214.097 81.9314L243.569 94.7937L243.555 95.0948L238.828 199.412L249.38 367.952L248.912 367.958L129.98 369.429Z" fill="#E8E9EA"/>
<path d="M211.096 485.175L218.442 506.867C218.442 506.867 247.178 510.731 247.625 519.532C248.072 528.332 208.571 523.238 185.441 524.388C162.311 525.538 181.565 500.76 181.565 500.76L184.03 486.521L211.096 485.175Z" fill="#2E2E41"/>
<path d="M151.112 483.614L158.457 505.305C158.457 505.305 187.193 509.17 187.64 517.97C188.087 526.771 148.586 521.676 125.456 522.826C102.326 523.976 121.58 499.198 121.58 499.198L124.045 484.959L151.112 483.614Z" fill="#2E2E41"/>
<path d="M115.275 281.354C114.964 277.077 115.693 272.789 117.4 268.848L111.918 224.362L133.393 222.401L136.641 267.737C138.799 271.454 140.026 275.629 140.219 279.911C140.85 290.623 135.778 299.625 128.89 300.022C122.001 300.42 115.905 292.062 115.275 281.354Z" fill="#FDB4B4"/>
<path d="M251.288 287.884C251.024 283.604 251.8 279.323 253.551 275.401L248.56 230.859L270.054 229.13L272.802 274.498C274.919 278.238 276.1 282.426 276.246 286.71C276.759 297.428 271.589 306.374 264.696 306.698C257.803 307.021 251.8 298.598 251.288 287.884Z" fill="#FDB4B4"/>
<path d="M111.83 263.514L111.758 263.13L100.566 203.728L113.79 106.998C114.97 98.3621 122.765 92.1412 131.556 92.8365C136.146 93.2 140.265 95.3538 143.155 98.9021C146.043 102.45 147.293 106.89 146.674 111.405L136.721 183.951L142.988 261.546L111.83 263.514Z" fill="#E8E9EA"/>
<path d="M244.656 262.12L222.155 113.54C220.985 109.183 221.67 104.624 224.092 100.75C226.515 96.8752 230.333 94.2335 234.843 93.3106C243.472 91.5453 251.992 96.7629 254.244 105.187L275.861 260.254L244.656 262.12Z" fill="#E8E9EA"/>
<path d="M192.079 132.897C193.605 132.897 194.842 131.673 194.842 130.164C194.842 128.655 193.605 127.432 192.079 127.432C190.554 127.432 189.317 128.655 189.317 130.164C189.317 131.673 190.554 132.897 192.079 132.897Z" fill="#D6D7D8"/>
<path d="M192.079 153.587C193.605 153.587 194.842 152.364 194.842 150.855C194.842 149.345 193.605 148.122 192.079 148.122C190.554 148.122 189.317 149.345 189.317 150.855C189.317 152.364 190.554 153.587 192.079 153.587Z" fill="#D6D7D8"/>
<path d="M192.079 174.278C193.605 174.278 194.842 173.054 194.842 171.545C194.842 170.036 193.605 168.812 192.079 168.812C190.554 168.812 189.317 170.036 189.317 171.545C189.317 173.054 190.554 174.278 192.079 174.278Z" fill="#D6D7D8"/>
<path d="M192.079 194.968C193.605 194.968 194.842 193.745 194.842 192.235C194.842 190.726 193.605 189.503 192.079 189.503C190.554 189.503 189.317 190.726 189.317 192.235C189.317 193.745 190.554 194.968 192.079 194.968Z" fill="#D6D7D8"/>
<path d="M192.079 215.658C193.605 215.658 194.842 214.435 194.842 212.926C194.842 211.416 193.605 210.193 192.079 210.193C190.554 210.193 189.317 211.416 189.317 212.926C189.317 214.435 190.554 215.658 192.079 215.658Z" fill="#D6D7D8"/>
<path d="M192.079 236.349C193.605 236.349 194.842 235.125 194.842 233.616C194.842 232.107 193.605 230.883 192.079 230.883C190.554 230.883 189.317 232.107 189.317 233.616C189.317 235.125 190.554 236.349 192.079 236.349Z" fill="#D6D7D8"/>
<path d="M192.079 257.039C193.605 257.039 194.842 255.816 194.842 254.306C194.842 252.797 193.605 251.574 192.079 251.574C190.554 251.574 189.317 252.797 189.317 254.306C189.317 255.816 190.554 257.039 192.079 257.039Z" fill="#D6D7D8"/>
<path d="M192.079 277.729C193.605 277.729 194.842 276.506 194.842 274.997C194.842 273.488 193.605 272.264 192.079 272.264C190.554 272.264 189.317 273.488 189.317 274.997C189.317 276.506 190.554 277.729 192.079 277.729Z" fill="#D6D7D8"/>
<path d="M192.082 293.735L139.814 286.844L138.807 286.712L112.094 225.781L96.1851 189.504H137.622L192.082 293.735Z" fill="#F3F3F3"/>
<path d="M401.652 62.5294L434.883 44.5207V95.9743H396.451L401.652 62.5294Z" fill="#2E2E41"/>
<path d="M442.008 74.001L445.075 99.2617L422.971 142.804L409.252 102.278L415.702 73.1619L442.008 74.001Z" fill="#FDB4B4"/>
<path d="M446.218 100.77H408.054V146.385H446.218V100.77Z" fill="#F3F3F3"/>
<path d="M477.702 342.337L487.667 489.378L463.17 490.199L430.784 343.569L477.702 342.337Z" fill="#2E2E41"/>
<path d="M418.328 341.516L428.293 488.556L403.796 489.377L371.411 342.748L418.328 341.516Z" fill="#2E2E41"/>
<path d="M503.583 373.524L502.999 373.522L346.943 373.018L347.083 372.471L387.205 215.221L377.154 135.862C375.25 120.825 383.388 106.611 397.404 100.494L402.464 98.2864L412.077 91.371L424.374 134.357L444.067 91.3375L452.742 99.9179L472.306 105.053C484.501 108.253 492.401 119.99 490.683 132.353L490.662 132.439L460.785 216.773L503.583 373.524Z" fill="#E8E9EA"/>
<path d="M405.369 487.707L431.507 489.006L433.887 502.756C433.887 502.756 452.481 526.684 430.144 525.574C407.808 524.463 369.662 529.382 370.094 520.884C370.526 512.386 398.276 508.654 398.276 508.654L405.369 487.707Z" fill="#2E2E41"/>
<path d="M463.296 486.199L489.434 487.498L491.814 501.248C491.814 501.248 510.407 525.176 488.071 524.066C465.734 522.955 427.589 527.875 428.021 519.376C428.453 510.878 456.203 507.146 456.203 507.146L463.296 486.199Z" fill="#2E2E41"/>
<path d="M487.232 289.371C486.623 299.712 480.737 307.783 474.084 307.399C467.432 307.015 462.534 298.322 463.144 287.978C463.33 283.842 464.515 279.811 466.599 276.222L469.736 232.441L490.473 234.335L485.179 277.294C486.829 281.1 487.532 285.241 487.232 289.371Z" fill="#FDB4B4"/>
<path d="M380.664 285.439C379.833 295.764 373.774 303.71 367.132 303.186C360.489 302.662 355.78 293.868 356.612 283.539C356.887 279.408 358.158 275.403 360.319 271.858L364.397 228.154L385.089 230.484L378.872 273.322C380.439 277.161 381.054 281.316 380.664 285.439Z" fill="#FDB4B4"/>
<path d="M490.571 272.159L460.453 270.257L460.49 269.811L466.506 195.311L456.896 125.256C456.296 120.892 457.505 116.6 460.297 113.171C463.089 109.741 467.071 107.659 471.509 107.307C480.005 106.645 487.539 112.649 488.681 120.996L501.451 214.409L501.438 214.479L490.571 272.159Z" fill="#E8E9EA"/>
<path d="M385.678 269.305L355.513 267.501L355.579 267.03L376.38 117.79C378.568 109.594 386.807 104.552 395.144 106.258C399.504 107.149 403.194 109.703 405.535 113.448C407.877 117.194 408.539 121.6 407.398 125.857L385.678 269.305Z" fill="#E8E9EA"/>
<path d="M423.734 147.516C425.207 147.516 426.401 146.335 426.401 144.877C426.401 143.42 425.207 142.238 423.734 142.238C422.26 142.238 421.066 143.42 421.066 144.877C421.066 146.335 422.26 147.516 423.734 147.516Z" fill="#D6D7D8"/>
<path d="M423.734 167.497C425.207 167.497 426.401 166.315 426.401 164.858C426.401 163.4 425.207 162.219 423.734 162.219C422.26 162.219 421.066 163.4 421.066 164.858C421.066 166.315 422.26 167.497 423.734 167.497Z" fill="#D6D7D8"/>
<path d="M423.734 187.477C425.207 187.477 426.401 186.296 426.401 184.838C426.401 183.381 425.207 182.199 423.734 182.199C422.26 182.199 421.066 183.381 421.066 184.838C421.066 186.296 422.26 187.477 423.734 187.477Z" fill="#D6D7D8"/>
<path d="M423.734 207.457C425.207 207.457 426.401 206.276 426.401 204.818C426.401 203.361 425.207 202.18 423.734 202.18C422.26 202.18 421.066 203.361 421.066 204.818C421.066 206.276 422.26 207.457 423.734 207.457Z" fill="#D6D7D8"/>
<path d="M423.734 227.438C425.207 227.438 426.401 226.256 426.401 224.799C426.401 223.341 425.207 222.16 423.734 222.16C422.26 222.16 421.066 223.341 421.066 224.799C421.066 226.256 422.26 227.438 423.734 227.438Z" fill="#D6D7D8"/>
<path d="M423.734 247.418C425.207 247.418 426.401 246.237 426.401 244.779C426.401 243.322 425.207 242.14 423.734 242.14C422.26 242.14 421.066 243.322 421.066 244.779C421.066 246.237 422.26 247.418 423.734 247.418Z" fill="#D6D7D8"/>
<path d="M423.734 267.399C425.207 267.399 426.401 266.217 426.401 264.76C426.401 263.302 425.207 262.121 423.734 262.121C422.26 262.121 421.066 263.302 421.066 264.76C421.066 266.217 422.26 267.399 423.734 267.399Z" fill="#D6D7D8"/>
<path d="M423.734 287.379C425.207 287.379 426.401 286.198 426.401 284.74C426.401 283.283 425.207 282.101 423.734 282.101C422.26 282.101 421.066 283.283 421.066 284.74C421.066 286.198 422.26 287.379 423.734 287.379Z" fill="#D6D7D8"/>
<path d="M427.784 86.8931C441.564 86.8931 452.736 75.842 452.736 62.2099C452.736 48.5778 441.564 37.5267 427.784 37.5267C414.003 37.5267 402.832 48.5778 402.832 62.2099C402.832 75.842 414.003 86.8931 427.784 86.8931Z" fill="#FDB4B4"/>
<path d="M440.86 33.3954C442.055 35.8009 440.159 38.8057 437.65 39.8171C435.14 40.8285 432.305 40.4187 429.629 39.9977C426.953 39.5767 424.114 39.1775 421.612 40.2068C418.374 41.5386 416.549 44.8793 414.977 47.9793C412.041 53.7666 409.106 59.554 406.17 65.3413C404.736 68.1689 403.269 71.1236 403.241 74.287C403.19 80.0939 407.847 84.7344 410.352 89.986C413.403 96.38 413.151 104.216 409.697 110.406C406.242 116.595 399.673 120.981 392.578 121.834C390.711 122.058 388.735 122.034 387.057 121.195C385.379 120.356 384.098 118.524 384.408 116.689C385.016 113.101 390.559 112.262 391.577 108.766C392.109 106.941 391.168 104.992 389.899 103.566C388.63 102.141 387.026 101.029 385.815 99.554C383.025 96.1538 382.839 90.905 385.382 87.3199C386.877 85.213 389.188 83.6477 390.154 81.2577C390.978 79.2206 390.679 76.9307 390.367 74.7586C389.966 71.9675 389.565 69.1764 389.165 66.3853C388.697 63.1289 388.237 59.7558 389.161 56.5963C391.278 49.3558 399.542 45.9553 404.389 40.1395C406.641 37.4369 408.156 34.1867 410.467 31.5327C414.344 27.0791 420.449 24.6222 426.368 25.1329C432.287 25.6437 437.869 29.1089 440.909 34.1593" fill="#2E2E41"/>
<path d="M436.921 33.8519C435.701 34.2832 435.249 35.8539 435.6 37.0866C435.951 38.3194 436.87 39.2989 437.711 40.2726C447.223 51.2848 449.434 67.9418 443.118 81.0099C441.438 84.4859 439.2 87.7572 438.294 91.5043C437.635 94.2308 437.67 97.2215 436.141 99.5818C434.584 101.985 431.5 103.595 431.195 106.433C430.999 108.254 432.121 110.024 433.625 111.091C435.13 112.159 436.967 112.648 438.775 113.046C443.472 114.082 448.275 114.647 453.087 114.731C454.655 114.758 456.274 114.724 457.713 114.106C459.152 113.488 460.38 112.147 460.397 110.595C460.41 109.375 459.699 108.25 459.608 107.033C459.336 103.388 464.294 101.449 465.26 97.921C465.895 95.6015 464.644 93.2148 463.311 91.206C461.978 89.1971 460.457 87.0877 460.49 84.6849C460.521 82.3847 461.98 80.3589 462.548 78.1279C463.332 75.042 462.368 71.8142 461.413 68.776C460.6 66.1929 459.787 63.6099 458.975 61.0269C458.111 58.281 457.247 55.5351 456.383 52.7893C454.875 47.9955 453.292 43.0629 450.028 39.2181C446.764 35.3733 441.357 32.8533 436.536 34.4231" fill="#2E2E41"/>
<path d="M453.923 129.5L452.213 129.006C455.776 116.921 448.094 94.3686 448.016 94.1423L449.702 93.5735C450.028 94.5196 457.643 116.885 453.923 129.5Z" fill="#3F3C57"/>
<path d="M453.069 143.381C457.179 143.381 460.51 140.085 460.51 136.019C460.51 131.954 457.179 128.658 453.069 128.658C448.959 128.658 445.627 131.954 445.627 136.019C445.627 140.085 448.959 143.381 453.069 143.381Z" fill="#3F3C57"/>
<path d="M404.174 162.08H399.661C399.169 162.08 398.771 161.686 398.771 161.199C398.771 160.713 399.169 160.318 399.661 160.318H404.174C405.418 160.318 406.586 159.839 407.465 158.968C408.343 158.098 408.825 156.941 408.823 155.711L408.768 128.214C408.768 122.24 403.857 117.382 397.82 117.382C391.783 117.382 386.871 122.24 386.871 128.212L386.926 153.95C386.931 156.46 389 158.519 391.539 158.538L394.636 158.561C395.128 158.565 395.523 158.962 395.52 159.449C395.516 159.933 395.118 160.324 394.629 160.324H394.622L391.525 160.3C388.014 160.274 385.151 157.426 385.144 153.953L385.089 128.214C385.089 121.268 390.8 115.619 397.82 115.619C404.839 115.619 410.549 121.268 410.549 128.212L410.604 155.708C410.608 157.409 409.941 159.009 408.725 160.213C407.511 161.417 405.894 162.08 404.174 162.08Z" fill="#3F3C57"/>
<path d="M394.629 162.566C396.373 162.566 397.786 161.167 397.786 159.443C397.786 157.718 396.373 156.319 394.629 156.319C392.886 156.319 391.472 157.718 391.472 159.443C391.472 161.167 392.886 162.566 394.629 162.566Z" fill="#3F3C57"/>
<path d="M399.661 164.322C401.405 164.322 402.818 162.924 402.818 161.199C402.818 159.474 401.405 158.076 399.661 158.076C397.917 158.076 396.504 159.474 396.504 161.199C396.504 162.924 397.917 164.322 399.661 164.322Z" fill="#3F3C57"/>
<path d="M217.405 116.292L215.695 115.798C219.258 103.713 211.661 80.8113 211.584 80.585L213.722 82.179C214.048 83.1251 221.124 103.677 217.405 116.292Z" fill="#3F3C57"/>
<path d="M157.289 118.439L158.999 117.946C155.436 105.86 163.118 83.3077 163.196 83.0814L161.366 84.2936C161.04 85.2397 153.569 105.824 157.289 118.439Z" fill="#3F3C57"/>
<path d="M216.55 130.173C220.659 130.173 223.991 126.877 223.991 122.812C223.991 118.746 220.659 115.45 216.55 115.45C212.44 115.45 209.108 118.746 209.108 122.812C209.108 126.877 212.44 130.173 216.55 130.173Z" fill="#3F3C57"/>
<path d="M165.222 163.707H160.709C160.216 163.707 159.818 163.312 159.818 162.826C159.818 162.339 160.216 161.945 160.709 161.945H165.222C166.465 161.945 167.634 161.465 168.512 160.595C169.39 159.724 169.873 158.567 169.87 157.338L169.815 129.84C169.815 123.867 164.904 119.008 158.867 119.008C152.83 119.008 147.918 123.867 147.918 129.838L147.973 155.576C147.978 158.087 150.048 160.145 152.586 160.165L155.683 160.188C156.175 160.192 156.571 160.589 156.567 161.076C156.564 161.56 156.165 161.95 155.677 161.95H155.67L152.572 161.927C149.061 161.9 146.198 159.053 146.192 155.58L146.137 129.84C146.137 122.895 151.847 117.246 158.867 117.246C165.886 117.246 171.597 122.895 171.597 129.838L171.652 157.334C171.655 159.035 170.988 160.635 169.773 161.839C168.558 163.044 166.941 163.707 165.222 163.707Z" fill="#3F3C57"/>
<path d="M155.677 164.192C157.421 164.192 158.834 162.794 158.834 161.069C158.834 159.344 157.421 157.946 155.677 157.946C153.934 157.946 152.52 159.344 152.52 161.069C152.52 162.794 153.934 164.192 155.677 164.192Z" fill="#3F3C57"/>
<path d="M160.709 165.949C162.452 165.949 163.866 164.551 163.866 162.826C163.866 161.101 162.452 159.703 160.709 159.703C158.965 159.703 157.552 161.101 157.552 162.826C157.552 164.551 158.965 165.949 160.709 165.949Z" fill="#3F3C57"/>
</g>
<defs>
<clipPath id="clip0_27_197">
<rect width="617" height="526" fill="white"/>
</clipPath>
</defs>
</svg>
